<svg xmlns="http://www.w3.org/2000/svg" fill-rule="evenodd" stroke-linejoin="round" stroke-miterlimit="2" clip-rule="evenodd" viewBox="0 0 48 48" id="schedule"><path d="M34 6h-9V4a1 1 0 0 0-2 0v2h-9V4a1 1 0 0 0-2 0v2H6C4.344 6 3 7.344 3 9v33c0 1.656 1.344 3 3 3h36c1.656 0 3-1.344 3-3V9c0-1.656-1.344-3-3-3h-6V4a1 1 0 0 0-2 0v2Zm9 15v21a1 1 0 0 1-1 1H6a1 1 0 0 1-1-1V21h38Zm-15 8.414V36h-2a1 1 0 0 0 0 2h6a1 1 0 0 0 0-2h-2v-9.011a1 1 0 0 0-1.707-.696l-3 3a1 1 0 0 0 1.414 1.414L28 29.414ZM18 32h-2a1 1 0 0 0 0 2h2v2a1 1 0 0 0 2 0v-2h2a1 1 0 0 0 0-2h-2v-2a1 1 0 0 0-2 0v2ZM36 8v3.171A3.001 3.001 0 1 1 32 14c0-1.305.835-2.417 2-2.829V8h-9v3.171A3.001 3.001 0 1 1 21 14c0-1.305.835-2.417 2-2.829V8h-9v3.171A3.001 3.001 0 1 1 10 14c0-1.305.835-2.417 2-2.829V8H6a1 1 0 0 0-1 1v10h38V9a1 1 0 0 0-1-1h-6Zm-1 5a1 1 0 1 1 0 2 1 1 0 0 1 0-2Zm-22 0a1 1 0 1 1 0 2 1 1 0 0 1 0-2Zm11 0a1 1 0 1 1 0 2 1 1 0 0 1 0-2Z" fill="#459efc" class="color000000 svgShape"></path></svg>